<svg width="484" height="55" viewBox="0 0 484 55" fill="none" xmlns="http://www.w3.org/2000/svg">
<rect width="484" height="55" rx="22" fill="#F5F5F5"/>
<path d="M53.7029 28.967L53.7028 28.966C53.669 28.6758 53.9363 28.268 54.5371 28.2193C55.1485 28.173 55.5343 28.5405 55.571 28.8508C55.6337 29.393 55.6653 29.9432 55.6653 30.5001C55.6653 39.7898 46.5221 47.5 35.0828 47.5C23.6435 47.5 14.5 39.7898 14.5 30.5001C14.5 21.2105 23.6435 13.5 35.0828 13.5C39.0473 13.5 42.8986 14.4379 46.2207 16.2078C46.4445 16.3276 46.5606 16.4943 46.6 16.6443C46.6383 16.7897 46.6148 16.9532 46.4938 17.1099C46.2288 17.4514 45.6157 17.5897 45.1367 17.3348C42.1281 15.7301 38.6506 14.8864 35.0828 14.8864C24.8585 14.8864 16.3749 21.8075 16.3749 30.5001C16.3749 39.1925 24.8585 46.1136 35.0828 46.1136C45.3068 46.1136 53.7904 39.1925 53.7904 30.5001C53.7904 29.9828 53.7605 29.4706 53.7029 28.967Z" fill="#41B06E" stroke="#41B06E"/>
<path d="M36.7832 33.7437L36.782 33.7427L28.1574 26.5837C28.1574 26.5837 28.1573 26.5837 28.1573 26.5836C27.9821 26.4381 27.9168 26.2697 27.9168 26.1242C27.9168 25.9786 27.9821 25.8104 28.1573 25.665C28.5336 25.3526 29.1756 25.3526 29.5519 25.665L37.1611 31.9811L37.4804 32.2461L37.7998 31.9811L57.8644 15.3258C57.8644 15.3258 57.8644 15.3257 57.8645 15.3257C58.2413 15.0132 58.8832 15.0134 59.2595 15.3257C59.4347 15.4711 59.5 15.6394 59.5 15.7849C59.5 15.9304 59.4347 16.0986 59.2595 16.2441L38.1781 33.743C38.1779 33.7432 38.1776 33.7434 38.1774 33.7436C37.9963 33.8925 37.7454 33.9773 37.4783 33.9773C37.2108 33.9773 36.9608 33.8921 36.7832 33.7437Z" fill="#41B06E" stroke="#41B06E"/>
<path d="M211.114 36V18.5455H213.227V34.125H221.341V36H211.114ZM224.341 36V22.9091H226.352V36H224.341ZM225.364 20.7273C224.972 20.7273 224.634 20.5938 224.349 20.3267C224.071 20.0597 223.932 19.7386 223.932 19.3636C223.932 18.9886 224.071 18.6676 224.349 18.4006C224.634 18.1335 224.972 18 225.364 18C225.756 18 226.091 18.1335 226.369 18.4006C226.653 18.6676 226.795 18.9886 226.795 19.3636C226.795 19.7386 226.653 20.0597 226.369 20.3267C226.091 20.5938 225.756 20.7273 225.364 20.7273ZM232.048 28.125V36H230.036V22.9091H231.979V24.9545H232.15C232.457 24.2898 232.923 23.7557 233.548 23.3523C234.173 22.9432 234.979 22.7386 235.968 22.7386C236.854 22.7386 237.63 22.9205 238.295 23.2841C238.96 23.642 239.477 24.1875 239.846 24.9205C240.215 25.6477 240.4 26.5682 240.4 27.6818V36H238.388V27.8182C238.388 26.7898 238.121 25.9886 237.587 25.4148C237.053 24.8352 236.32 24.5455 235.388 24.5455C234.746 24.5455 234.173 24.6847 233.667 24.9631C233.167 25.2415 232.772 25.6477 232.482 26.1818C232.192 26.7159 232.048 27.3636 232.048 28.125ZM245.95 31.2273L245.916 28.7386H246.325L252.053 22.9091H254.541L248.439 29.0795H248.268L245.95 31.2273ZM244.075 36V18.5455H246.087V36H244.075ZM252.393 36L247.28 29.5227L248.712 28.125L254.95 36H252.393ZM269.3 36.2386C268.3 36.2386 267.4 36.0398 266.599 35.642C265.798 35.2443 265.156 34.6989 264.673 34.0057C264.19 33.3125 263.925 32.5227 263.88 31.6364H265.925C266.005 32.4261 266.363 33.0795 266.999 33.5966C267.641 34.108 268.408 34.3636 269.3 34.3636C270.016 34.3636 270.653 34.196 271.21 33.8608C271.772 33.5256 272.212 33.0653 272.531 32.4801C272.854 31.8892 273.016 31.2216 273.016 30.4773C273.016 29.7159 272.849 29.0369 272.513 28.4403C272.184 27.8381 271.729 27.3636 271.15 27.017C270.57 26.6705 269.908 26.4943 269.164 26.4886C268.63 26.483 268.082 26.5653 267.519 26.7358C266.957 26.9006 266.494 27.1136 266.13 27.375L264.153 27.1364L265.21 18.5455H274.278V20.4205H266.982L266.369 25.5682H266.471C266.829 25.2841 267.278 25.0483 267.817 24.8608C268.357 24.6733 268.92 24.5795 269.505 24.5795C270.573 24.5795 271.525 24.8352 272.36 25.3466C273.201 25.8523 273.86 26.5455 274.337 27.4261C274.82 28.3068 275.062 29.3125 275.062 30.4432C275.062 31.5568 274.812 32.5511 274.312 33.4261C273.817 34.2955 273.136 34.983 272.266 35.4886C271.397 35.9886 270.408 36.2386 269.3 36.2386Z" fill="black"/>
<path d="M211.114 36H210.614V36.5H211.114V36ZM211.114 18.5455V18.0455H210.614V18.5455H211.114ZM213.227 18.5455H213.727V18.0455H213.227V18.5455ZM213.227 34.125H212.727V34.625H213.227V34.125ZM221.341 34.125H221.841V33.625H221.341V34.125ZM221.341 36V36.5H221.841V36H221.341ZM211.614 36V18.5455H210.614V36H211.614ZM211.114 19.0455H213.227V18.0455H211.114V19.0455ZM212.727 18.5455V34.125H213.727V18.5455H212.727ZM213.227 34.625H221.341V33.625H213.227V34.625ZM220.841 34.125V36H221.841V34.125H220.841ZM221.341 35.5H211.114V36.5H221.341V35.5ZM224.341 36H223.841V36.5H224.341V36ZM224.341 22.9091V22.4091H223.841V22.9091H224.341ZM226.352 22.9091H226.852V22.4091H226.352V22.9091ZM226.352 36V36.5H226.852V36H226.352ZM224.349 20.3267L224.003 20.6876L224.007 20.691L224.349 20.3267ZM224.349 18.4006L224.007 18.0362L224.003 18.0397L224.349 18.4006ZM226.369 18.4006L226.023 18.7614L226.027 18.7649L226.369 18.4006ZM226.369 20.3267L226.027 19.9624L226.023 19.9659L226.369 20.3267ZM224.841 36V22.9091H223.841V36H224.841ZM224.341 23.4091H226.352V22.4091H224.341V23.4091ZM225.852 22.9091V36H226.852V22.9091H225.852ZM226.352 35.5H224.341V36.5H226.352V35.5ZM225.364 20.2273C225.098 20.2273 224.883 20.1417 224.692 19.9624L224.007 20.691C224.384 21.0458 224.845 21.2273 225.364 21.2273V20.2273ZM224.696 19.9659C224.512 19.7901 224.432 19.5981 224.432 19.3636H223.432C223.432 19.8792 223.63 20.3293 224.003 20.6875L224.696 19.9659ZM224.432 19.3636C224.432 19.1292 224.512 18.9372 224.696 18.7614L224.003 18.0397C223.63 18.398 223.432 18.8481 223.432 19.3636H224.432ZM224.692 18.7649C224.883 18.5855 225.098 18.5 225.364 18.5V17.5C224.845 17.5 224.384 17.6815 224.007 18.0363L224.692 18.7649ZM225.364 18.5C225.629 18.5 225.84 18.5853 226.023 18.7614L226.715 18.0397C226.342 17.6818 225.882 17.5 225.364 17.5V18.5ZM226.027 18.7649C226.215 18.9417 226.295 19.1327 226.295 19.3636H227.295C227.295 18.8446 227.092 18.3936 226.712 18.0363L226.027 18.7649ZM226.295 19.3636C226.295 19.5946 226.215 19.7856 226.027 19.9624L226.712 20.691C227.092 20.3337 227.295 19.8827 227.295 19.3636H226.295ZM226.023 19.9659C225.84 20.142 225.629 20.2273 225.364 20.2273V21.2273C225.882 21.2273 226.342 21.0455 226.715 20.6875L226.023 19.9659ZM232.048 36V36.5H232.548V36H232.048ZM230.036 36H229.536V36.5H230.036V36ZM230.036 22.9091V22.4091H229.536V22.9091H230.036ZM231.979 22.9091H232.479V22.4091H231.979V22.9091ZM231.979 24.9545H231.479V25.4545H231.979V24.9545ZM232.15 24.9545V25.4545H232.47L232.604 25.1641L232.15 24.9545ZM233.548 23.3523L233.819 23.7724L233.821 23.7706L233.548 23.3523ZM238.295 23.2841L238.055 23.7228L238.058 23.7243L238.295 23.2841ZM239.846 24.9205L239.399 25.1454L239.4 25.1468L239.846 24.9205ZM240.4 36V36.5H240.9V36H240.4ZM238.388 36H237.888V36.5H238.388V36ZM237.587 25.4148L237.22 25.7536L237.221 25.7554L237.587 25.4148ZM233.667 24.9631L233.426 24.5251L233.424 24.5262L233.667 24.9631ZM232.482 26.1818L232.043 25.9434L232.043 25.9434L232.482 26.1818ZM231.548 28.125V36H232.548V28.125H231.548ZM232.048 35.5H230.036V36.5H232.048V35.5ZM230.536 36V22.9091H229.536V36H230.536ZM230.036 23.4091H231.979V22.4091H230.036V23.4091ZM231.479 22.9091V24.9545H232.479V22.9091H231.479ZM231.979 25.4545H232.15V24.4545H231.979V25.4545ZM232.604 25.1641C232.87 24.5869 233.272 24.1252 233.819 23.7724L233.276 22.9322C232.573 23.3861 232.043 23.9927 231.696 24.745L232.604 25.1641ZM233.821 23.7706C234.343 23.4295 235.046 23.2386 235.968 23.2386V22.2386C234.913 22.2386 234.003 22.4569 233.274 22.9339L233.821 23.7706ZM235.968 23.2386C236.785 23.2386 237.475 23.4057 238.055 23.7228L238.535 22.8454C237.785 22.4352 236.924 22.2386 235.968 22.2386V23.2386ZM238.058 23.7243C238.624 24.0294 239.072 24.4956 239.399 25.1454L240.292 24.6955C239.881 23.8794 239.295 23.2547 238.532 22.8439L238.058 23.7243ZM239.4 25.1468C239.723 25.7831 239.9 26.6196 239.9 27.6818H240.9C240.9 26.5168 240.707 25.5123 240.292 24.6941L239.4 25.1468ZM239.9 27.6818V36H240.9V27.6818H239.9ZM240.4 35.5H238.388V36.5H240.4V35.5ZM238.888 36V27.8182H237.888V36H238.888ZM238.888 27.8182C238.888 26.7039 238.598 25.7664 237.953 25.0741L237.221 25.7554C237.645 26.2108 237.888 26.8757 237.888 27.8182H238.888ZM237.955 25.0759C237.309 24.3749 236.432 24.0455 235.388 24.0455V25.0455C236.208 25.0455 236.798 25.2956 237.22 25.7536L237.955 25.0759ZM235.388 24.0455C234.672 24.0455 234.013 24.2016 233.426 24.5251L233.908 25.4011C234.332 25.1677 234.821 25.0455 235.388 25.0455V24.0455ZM233.424 24.5262C232.836 24.8537 232.375 25.3313 232.043 25.9434L232.922 26.4203C233.169 25.9642 233.498 25.6293 233.91 25.3999L233.424 24.5262ZM232.043 25.9434C231.704 26.5669 231.548 27.301 231.548 28.125H232.548C232.548 27.4262 232.68 26.8649 232.922 26.4203L232.043 25.9434ZM245.95 31.2273L245.45 31.2341L245.466 32.3578L246.29 31.5941L245.95 31.2273ZM245.916 28.7386V28.2386H245.409L245.416 28.7455L245.916 28.7386ZM246.325 28.7386V29.2386H246.535L246.682 29.089L246.325 28.7386ZM252.053 22.9091V22.4091H251.843L251.696 22.5587L252.053 22.9091ZM254.541 22.9091L254.897 23.2607L255.739 22.4091H254.541V22.9091ZM248.439 29.0795V29.5795H248.648L248.794 29.4311L248.439 29.0795ZM248.268 29.0795V28.5795H248.072L247.929 28.7128L248.268 29.0795ZM244.075 36H243.575V36.5H244.075V36ZM244.075 18.5455V18.0455H243.575V18.5455H244.075ZM246.087 18.5455H246.587V18.0455H246.087V18.5455ZM246.087 36V36.5H246.587V36H246.087ZM252.393 36L252.001 36.3098L252.151 36.5H252.393V36ZM247.28 29.5227L246.931 29.1649L246.609 29.4793L246.887 29.8325L247.28 29.5227ZM248.712 28.125L249.104 27.8145L248.759 27.3798L248.362 27.7672L248.712 28.125ZM254.95 36V36.5H255.984L255.342 35.6895L254.95 36ZM246.45 31.2204L246.416 28.7318L245.416 28.7455L245.45 31.2341L246.45 31.2204ZM245.916 29.2386H246.325V28.2386H245.916V29.2386ZM246.682 29.089L252.409 23.2595L251.696 22.5587L245.969 28.3882L246.682 29.089ZM252.053 23.4091H254.541V22.4091H252.053V23.4091ZM254.186 22.5575L248.083 28.728L248.794 29.4311L254.897 23.2607L254.186 22.5575ZM248.439 28.5795H248.268V29.5795H248.439V28.5795ZM247.929 28.7128L245.61 30.8605L246.29 31.5941L248.608 29.4463L247.929 28.7128ZM244.575 36V18.5455H243.575V36H244.575ZM244.075 19.0455H246.087V18.0455H244.075V19.0455ZM245.587 18.5455V36H246.587V18.5455H245.587ZM246.087 35.5H244.075V36.5H246.087V35.5ZM252.786 35.6902L247.672 29.2129L246.887 29.8325L252.001 36.3098L252.786 35.6902ZM247.629 29.8805L249.061 28.4828L248.362 27.7672L246.931 29.1649L247.629 29.8805ZM248.32 28.4355L254.558 36.3105L255.342 35.6895L249.104 27.8145L248.32 28.4355ZM254.95 35.5H252.393V36.5H254.95V35.5ZM266.599 35.642L266.376 36.0899L266.376 36.0899L266.599 35.642ZM264.673 34.0057L265.083 33.7199L265.083 33.7199L264.673 34.0057ZM263.88 31.6364V31.1364H263.354L263.381 31.662L263.88 31.6364ZM265.925 31.6364L266.423 31.5863L266.378 31.1364H265.925V31.6364ZM266.999 33.5966L266.684 33.9847L266.688 33.9877L266.999 33.5966ZM271.21 33.8608L270.954 33.4313L270.952 33.4324L271.21 33.8608ZM272.531 32.4801L272.092 32.2398L272.091 32.2413L272.531 32.4801ZM272.513 28.4403L272.075 28.6804L272.078 28.6853L272.513 28.4403ZM269.164 26.4886L269.159 26.9886L269.16 26.9886L269.164 26.4886ZM267.519 26.7358L267.66 27.2157L267.664 27.2143L267.519 26.7358ZM266.13 27.375L266.07 27.8714L266.264 27.8947L266.422 27.781L266.13 27.375ZM264.153 27.1364L263.656 27.0753L263.595 27.5727L264.093 27.6328L264.153 27.1364ZM265.21 18.5455V18.0455H264.767L264.713 18.4844L265.21 18.5455ZM274.278 18.5455H274.778V18.0455H274.278V18.5455ZM274.278 20.4205V20.9205H274.778V20.4205H274.278ZM266.982 20.4205V19.9205H266.538L266.486 20.3613L266.982 20.4205ZM266.369 25.5682L265.872 25.509L265.805 26.0682H266.369V25.5682ZM266.471 25.5682V26.0682H266.645L266.782 25.9598L266.471 25.5682ZM272.36 25.3466L272.099 25.773L272.102 25.7751L272.36 25.3466ZM274.337 27.4261L273.898 27.6644L273.899 27.6666L274.337 27.4261ZM274.312 33.4261L273.878 33.1781L273.877 33.179L274.312 33.4261ZM272.266 35.4886L272.516 35.9221L272.518 35.9208L272.266 35.4886ZM269.3 35.7386C268.368 35.7386 267.545 35.5538 266.821 35.1942L266.376 36.0899C267.254 36.5258 268.232 36.7386 269.3 36.7386V35.7386ZM266.821 35.1942C266.091 34.8316 265.515 34.34 265.083 33.7199L264.262 34.2915C264.796 35.0577 265.505 35.6571 266.376 36.0899L266.821 35.1942ZM265.083 33.7199C264.656 33.1073 264.42 32.4087 264.379 31.6108L263.381 31.662C263.431 32.6368 263.723 33.5177 264.262 34.2915L265.083 33.7199ZM263.88 32.1364H265.925V31.1364H263.88V32.1364ZM265.428 31.6865C265.521 32.6135 265.948 33.3868 266.684 33.9846L267.315 33.2085C266.778 32.7723 266.489 32.2388 266.423 31.5863L265.428 31.6865ZM266.688 33.9877C267.426 34.5758 268.306 34.8636 269.3 34.8636V33.8636C268.511 33.8636 267.856 33.6401 267.311 33.2055L266.688 33.9877ZM269.3 34.8636C270.098 34.8636 270.825 34.6759 271.467 34.2892L270.952 33.4324C270.48 33.7161 269.935 33.8636 269.3 33.8636V34.8636ZM271.465 34.2903C272.106 33.9083 272.61 33.3816 272.97 32.7189L272.091 32.2413C271.815 32.7491 271.438 33.1428 270.954 33.4313L271.465 34.2903ZM272.969 32.7204C273.337 32.0484 273.516 31.2966 273.516 30.4773H272.516C272.516 31.1466 272.371 31.73 272.092 32.2398L272.969 32.7204ZM273.516 30.4773C273.516 29.64 273.331 28.8749 272.949 28.1954L272.078 28.6853C272.366 29.1989 272.516 29.7918 272.516 30.4773H273.516ZM272.952 28.2003C272.581 27.5213 272.064 26.981 271.406 26.5879L270.893 27.4462C271.395 27.7463 271.787 28.1548 272.075 28.6803L272.952 28.2003ZM271.406 26.5879C270.743 26.191 269.992 25.9949 269.168 25.9887L269.16 26.9886C269.825 26.9937 270.398 27.1499 270.893 27.4462L271.406 26.5879ZM269.169 25.9887C268.58 25.9824 267.981 26.0735 267.374 26.2573L267.664 27.2143C268.183 27.0571 268.68 26.9835 269.159 26.9886L269.169 25.9887ZM267.379 26.256C266.778 26.432 266.259 26.6662 265.838 26.969L266.422 27.781C266.728 27.561 267.136 27.3692 267.66 27.2156L267.379 26.256ZM266.19 26.8786L264.213 26.64L264.093 27.6328L266.07 27.8714L266.19 26.8786ZM264.649 27.1974L265.706 18.6065L264.713 18.4844L263.656 27.0753L264.649 27.1974ZM265.21 19.0455H274.278V18.0455H265.21V19.0455ZM273.778 18.5455V20.4205H274.778V18.5455H273.778ZM274.278 19.9205H266.982V20.9205H274.278V19.9205ZM266.486 20.3613L265.872 25.509L266.865 25.6274L267.479 20.4796L266.486 20.3613ZM266.369 26.0682H266.471V25.0682H266.369V26.0682ZM266.782 25.9598C267.086 25.7182 267.482 25.5066 267.982 25.3331L267.653 24.3885C267.073 24.59 266.571 24.85 266.16 25.1765L266.782 25.9598ZM267.982 25.3331C268.467 25.1644 268.974 25.0795 269.505 25.0795V24.0795C268.865 24.0795 268.247 24.1822 267.653 24.3885L267.982 25.3331ZM269.505 25.0795C270.49 25.0795 271.349 25.3141 272.099 25.773L272.621 24.9202C271.7 24.3564 270.657 24.0795 269.505 24.0795V25.0795ZM272.102 25.7751C272.865 26.2337 273.462 26.8605 273.898 27.6644L274.777 27.1879C274.258 26.2304 273.537 25.4708 272.618 24.9181L272.102 25.7751ZM273.899 27.6666C274.337 28.4647 274.562 29.3858 274.562 30.4432H275.562C275.562 29.2392 275.304 28.149 274.776 27.1857L273.899 27.6666ZM274.562 30.4432C274.562 31.4792 274.33 32.3864 273.878 33.1781L274.746 33.6742C275.294 32.7159 275.562 31.6345 275.562 30.4432H274.562ZM273.877 33.179C273.427 33.9711 272.808 34.5949 272.015 35.0564L272.518 35.9208C273.463 35.371 274.208 34.6198 274.746 33.6733L273.877 33.179ZM272.017 35.0552C271.231 35.5071 270.33 35.7386 269.3 35.7386V36.7386C270.486 36.7386 271.563 36.4701 272.516 35.9221L272.017 35.0552Z" fill="black"/>
</svg>
