<svg width="484" height="55" viewBox="0 0 484 55" fill="none" xmlns="http://www.w3.org/2000/svg">
<rect width="484" height="55" rx="22" fill="#F5F5F5"/>
<path d="M53.7029 28.967L53.7028 28.966C53.669 28.6758 53.9363 28.268 54.5371 28.2193C55.1485 28.173 55.5343 28.5405 55.571 28.8508C55.6337 29.393 55.6653 29.9432 55.6653 30.5001C55.6653 39.7898 46.5221 47.5 35.0828 47.5C23.6435 47.5 14.5 39.7898 14.5 30.5001C14.5 21.2105 23.6435 13.5 35.0828 13.5C39.0473 13.5 42.8986 14.4379 46.2207 16.2078C46.4445 16.3276 46.5606 16.4943 46.6 16.6443C46.6383 16.7897 46.6148 16.9532 46.4938 17.1099C46.2288 17.4514 45.6157 17.5897 45.1367 17.3348C42.1281 15.7301 38.6506 14.8864 35.0828 14.8864C24.8585 14.8864 16.3749 21.8075 16.3749 30.5001C16.3749 39.1925 24.8585 46.1136 35.0828 46.1136C45.3068 46.1136 53.7904 39.1925 53.7904 30.5001C53.7904 29.9828 53.7605 29.4706 53.7029 28.967Z" fill="#41B06E" stroke="#41B06E"/>
<path d="M36.7832 33.7437L36.782 33.7427L28.1574 26.5837C28.1574 26.5837 28.1573 26.5837 28.1573 26.5836C27.9821 26.438 27.9168 26.2697 27.9168 26.1242C27.9168 25.9786 27.9821 25.8104 28.1573 25.665C28.5336 25.3526 29.1756 25.3526 29.5519 25.665L37.1611 31.981L37.4804 32.2461L37.7998 31.981L57.8644 15.3258C57.8644 15.3258 57.8644 15.3257 57.8645 15.3257C58.2413 15.0132 58.8832 15.0134 59.2595 15.3257C59.4347 15.4711 59.5 15.6394 59.5 15.7849C59.5 15.9304 59.4347 16.0986 59.2595 16.2441L38.1781 33.743C38.1779 33.7432 38.1776 33.7434 38.1774 33.7436C37.9963 33.8925 37.7454 33.9773 37.4783 33.9773C37.2108 33.9773 36.9608 33.8921 36.7832 33.7437Z" fill="#41B06E" stroke="#41B06E"/>
<path d="M211.114 36V18.5455H213.227V34.125H221.341V36H211.114ZM224.341 36V22.9091H226.352V36H224.341ZM225.364 20.7273C224.972 20.7273 224.634 20.5938 224.349 20.3267C224.071 20.0597 223.932 19.7386 223.932 19.3636C223.932 18.9886 224.071 18.6676 224.349 18.4006C224.634 18.1335 224.972 18 225.364 18C225.756 18 226.091 18.1335 226.369 18.4006C226.653 18.6676 226.795 18.9886 226.795 19.3636C226.795 19.7386 226.653 20.0597 226.369 20.3267C226.091 20.5938 225.756 20.7273 225.364 20.7273ZM232.048 28.125V36H230.036V22.9091H231.979V24.9545H232.15C232.457 24.2898 232.923 23.7557 233.548 23.3523C234.173 22.9432 234.979 22.7386 235.968 22.7386C236.854 22.7386 237.63 22.9205 238.295 23.2841C238.96 23.642 239.477 24.1875 239.846 24.9205C240.215 25.6477 240.4 26.5682 240.4 27.6818V36H238.388V27.8182C238.388 26.7898 238.121 25.9886 237.587 25.4148C237.053 24.8352 236.32 24.5455 235.388 24.5455C234.746 24.5455 234.173 24.6847 233.667 24.9631C233.167 25.2415 232.772 25.6477 232.482 26.1818C232.192 26.7159 232.048 27.3636 232.048 28.125ZM245.95 31.2273L245.916 28.7386H246.325L252.053 22.9091H254.541L248.439 29.0795H248.268L245.95 31.2273ZM244.075 36V18.5455H246.087V36H244.075ZM252.393 36L247.28 29.5227L248.712 28.125L254.95 36H252.393ZM269.744 36.2386C268.619 36.2386 267.616 36.0455 266.735 35.6591C265.86 35.2727 265.164 34.7358 264.647 34.0483C264.136 33.3551 263.857 32.5511 263.812 31.6364H265.96C266.005 32.1989 266.198 32.6847 266.539 33.0938C266.88 33.4972 267.326 33.8097 267.877 34.0312C268.428 34.2528 269.039 34.3636 269.71 34.3636C270.46 34.3636 271.124 34.233 271.704 33.9716C272.283 33.7102 272.738 33.3466 273.067 32.8807C273.397 32.4148 273.562 31.875 273.562 31.2614C273.562 30.6193 273.403 30.054 273.085 29.5653C272.766 29.071 272.3 28.6847 271.687 28.4062C271.073 28.1278 270.323 27.9886 269.437 27.9886H268.039V26.1136H269.437C270.13 26.1136 270.738 25.9886 271.261 25.7386C271.789 25.4886 272.201 25.1364 272.496 24.6818C272.798 24.2273 272.948 23.6932 272.948 23.0795C272.948 22.4886 272.817 21.9744 272.556 21.5369C272.295 21.0994 271.925 20.7585 271.448 20.5142C270.977 20.2699 270.42 20.1477 269.778 20.1477C269.175 20.1477 268.607 20.2585 268.073 20.4801C267.545 20.696 267.113 21.0114 266.778 21.4261C266.442 21.8352 266.261 22.3295 266.232 22.9091H264.187C264.221 21.9943 264.496 21.1932 265.013 20.5057C265.531 19.8125 266.207 19.2727 267.042 18.8864C267.883 18.5 268.806 18.3068 269.812 18.3068C270.891 18.3068 271.817 18.5256 272.59 18.9631C273.363 19.3949 273.957 19.9659 274.371 20.6761C274.786 21.3864 274.994 22.1534 274.994 22.9773C274.994 23.9602 274.735 24.7983 274.218 25.4915C273.707 26.1847 273.011 26.6648 272.13 26.9318V27.0682C273.232 27.25 274.093 27.7187 274.712 28.4744C275.332 29.2244 275.641 30.1534 275.641 31.2614C275.641 32.2102 275.383 33.0625 274.866 33.8182C274.354 34.5682 273.656 35.1591 272.769 35.5909C271.883 36.0227 270.874 36.2386 269.744 36.2386Z" fill="black"/>
<path d="M211.114 36H210.614V36.5H211.114V36ZM211.114 18.5455V18.0455H210.614V18.5455H211.114ZM213.227 18.5455H213.727V18.0455H213.227V18.5455ZM213.227 34.125H212.727V34.625H213.227V34.125ZM221.341 34.125H221.841V33.625H221.341V34.125ZM221.341 36V36.5H221.841V36H221.341ZM211.614 36V18.5455H210.614V36H211.614ZM211.114 19.0455H213.227V18.0455H211.114V19.0455ZM212.727 18.5455V34.125H213.727V18.5455H212.727ZM213.227 34.625H221.341V33.625H213.227V34.625ZM220.841 34.125V36H221.841V34.125H220.841ZM221.341 35.5H211.114V36.5H221.341V35.5ZM224.341 36H223.841V36.5H224.341V36ZM224.341 22.9091V22.4091H223.841V22.9091H224.341ZM226.352 22.9091H226.852V22.4091H226.352V22.9091ZM226.352 36V36.5H226.852V36H226.352ZM224.349 20.3267L224.003 20.6876L224.007 20.691L224.349 20.3267ZM224.349 18.4006L224.007 18.0362L224.003 18.0397L224.349 18.4006ZM226.369 18.4006L226.023 18.7614L226.027 18.7649L226.369 18.4006ZM226.369 20.3267L226.027 19.9624L226.023 19.9659L226.369 20.3267ZM224.841 36V22.9091H223.841V36H224.841ZM224.341 23.4091H226.352V22.4091H224.341V23.4091ZM225.852 22.9091V36H226.852V22.9091H225.852ZM226.352 35.5H224.341V36.5H226.352V35.5ZM225.364 20.2273C225.098 20.2273 224.883 20.1417 224.692 19.9624L224.007 20.691C224.384 21.0458 224.845 21.2273 225.364 21.2273V20.2273ZM224.696 19.9659C224.512 19.7901 224.432 19.5981 224.432 19.3636H223.432C223.432 19.8792 223.63 20.3293 224.003 20.6875L224.696 19.9659ZM224.432 19.3636C224.432 19.1292 224.512 18.9372 224.696 18.7614L224.003 18.0397C223.63 18.398 223.432 18.8481 223.432 19.3636H224.432ZM224.692 18.7649C224.883 18.5855 225.098 18.5 225.364 18.5V17.5C224.845 17.5 224.384 17.6815 224.007 18.0363L224.692 18.7649ZM225.364 18.5C225.629 18.5 225.84 18.5853 226.023 18.7614L226.715 18.0397C226.342 17.6818 225.882 17.5 225.364 17.5V18.5ZM226.027 18.7649C226.215 18.9417 226.295 19.1327 226.295 19.3636H227.295C227.295 18.8446 227.092 18.3936 226.712 18.0363L226.027 18.7649ZM226.295 19.3636C226.295 19.5946 226.215 19.7856 226.027 19.9624L226.712 20.691C227.092 20.3337 227.295 19.8827 227.295 19.3636H226.295ZM226.023 19.9659C225.84 20.142 225.629 20.2273 225.364 20.2273V21.2273C225.882 21.2273 226.342 21.0455 226.715 20.6875L226.023 19.9659ZM232.048 36V36.5H232.548V36H232.048ZM230.036 36H229.536V36.5H230.036V36ZM230.036 22.9091V22.4091H229.536V22.9091H230.036ZM231.979 22.9091H232.479V22.4091H231.979V22.9091ZM231.979 24.9545H231.479V25.4545H231.979V24.9545ZM232.15 24.9545V25.4545H232.47L232.604 25.1641L232.15 24.9545ZM233.548 23.3523L233.819 23.7724L233.821 23.7706L233.548 23.3523ZM238.295 23.2841L238.055 23.7228L238.058 23.7243L238.295 23.2841ZM239.846 24.9205L239.399 25.1454L239.4 25.1468L239.846 24.9205ZM240.4 36V36.5H240.9V36H240.4ZM238.388 36H237.888V36.5H238.388V36ZM237.587 25.4148L237.22 25.7536L237.221 25.7554L237.587 25.4148ZM233.667 24.9631L233.426 24.5251L233.424 24.5262L233.667 24.9631ZM232.482 26.1818L232.043 25.9434L232.043 25.9434L232.482 26.1818ZM231.548 28.125V36H232.548V28.125H231.548ZM232.048 35.5H230.036V36.5H232.048V35.5ZM230.536 36V22.9091H229.536V36H230.536ZM230.036 23.4091H231.979V22.4091H230.036V23.4091ZM231.479 22.9091V24.9545H232.479V22.9091H231.479ZM231.979 25.4545H232.15V24.4545H231.979V25.4545ZM232.604 25.1641C232.87 24.5869 233.272 24.1252 233.819 23.7724L233.276 22.9322C232.573 23.3861 232.043 23.9927 231.696 24.745L232.604 25.1641ZM233.821 23.7706C234.343 23.4295 235.046 23.2386 235.968 23.2386V22.2386C234.913 22.2386 234.003 22.4569 233.274 22.9339L233.821 23.7706ZM235.968 23.2386C236.785 23.2386 237.475 23.4057 238.055 23.7228L238.535 22.8454C237.785 22.4352 236.924 22.2386 235.968 22.2386V23.2386ZM238.058 23.7243C238.624 24.0294 239.072 24.4956 239.399 25.1454L240.292 24.6955C239.881 23.8794 239.295 23.2547 238.532 22.8439L238.058 23.7243ZM239.4 25.1468C239.723 25.7831 239.9 26.6196 239.9 27.6818H240.9C240.9 26.5168 240.707 25.5123 240.292 24.6941L239.4 25.1468ZM239.9 27.6818V36H240.9V27.6818H239.9ZM240.4 35.5H238.388V36.5H240.4V35.5ZM238.888 36V27.8182H237.888V36H238.888ZM238.888 27.8182C238.888 26.7039 238.598 25.7664 237.953 25.0741L237.221 25.7554C237.645 26.2108 237.888 26.8757 237.888 27.8182H238.888ZM237.955 25.0759C237.309 24.3749 236.432 24.0455 235.388 24.0455V25.0455C236.208 25.0455 236.798 25.2956 237.22 25.7536L237.955 25.0759ZM235.388 24.0455C234.672 24.0455 234.013 24.2016 233.426 24.5251L233.908 25.4011C234.332 25.1677 234.821 25.0455 235.388 25.0455V24.0455ZM233.424 24.5262C232.836 24.8537 232.375 25.3313 232.043 25.9434L232.922 26.4203C233.169 25.9642 233.498 25.6293 233.91 25.3999L233.424 24.5262ZM232.043 25.9434C231.704 26.5669 231.548 27.301 231.548 28.125H232.548C232.548 27.4262 232.68 26.8649 232.922 26.4203L232.043 25.9434ZM245.95 31.2273L245.45 31.2341L245.466 32.3578L246.29 31.5941L245.95 31.2273ZM245.916 28.7386V28.2386H245.409L245.416 28.7455L245.916 28.7386ZM246.325 28.7386V29.2386H246.535L246.682 29.089L246.325 28.7386ZM252.053 22.9091V22.4091H251.843L251.696 22.5587L252.053 22.9091ZM254.541 22.9091L254.897 23.2607L255.739 22.4091H254.541V22.9091ZM248.439 29.0795V29.5795H248.648L248.794 29.4311L248.439 29.0795ZM248.268 29.0795V28.5795H248.072L247.929 28.7128L248.268 29.0795ZM244.075 36H243.575V36.5H244.075V36ZM244.075 18.5455V18.0455H243.575V18.5455H244.075ZM246.087 18.5455H246.587V18.0455H246.087V18.5455ZM246.087 36V36.5H246.587V36H246.087ZM252.393 36L252.001 36.3098L252.151 36.5H252.393V36ZM247.28 29.5227L246.931 29.1649L246.609 29.4793L246.887 29.8325L247.28 29.5227ZM248.712 28.125L249.104 27.8145L248.759 27.3798L248.362 27.7672L248.712 28.125ZM254.95 36V36.5H255.984L255.342 35.6895L254.95 36ZM246.45 31.2204L246.416 28.7318L245.416 28.7455L245.45 31.2341L246.45 31.2204ZM245.916 29.2386H246.325V28.2386H245.916V29.2386ZM246.682 29.089L252.409 23.2595L251.696 22.5587L245.969 28.3882L246.682 29.089ZM252.053 23.4091H254.541V22.4091H252.053V23.4091ZM254.186 22.5575L248.083 28.728L248.794 29.4311L254.897 23.2607L254.186 22.5575ZM248.439 28.5795H248.268V29.5795H248.439V28.5795ZM247.929 28.7128L245.61 30.8605L246.29 31.5941L248.608 29.4463L247.929 28.7128ZM244.575 36V18.5455H243.575V36H244.575ZM244.075 19.0455H246.087V18.0455H244.075V19.0455ZM245.587 18.5455V36H246.587V18.5455H245.587ZM246.087 35.5H244.075V36.5H246.087V35.5ZM252.786 35.6902L247.672 29.2129L246.887 29.8325L252.001 36.3098L252.786 35.6902ZM247.629 29.8805L249.061 28.4828L248.362 27.7672L246.931 29.1649L247.629 29.8805ZM248.32 28.4355L254.558 36.3105L255.342 35.6895L249.104 27.8145L248.32 28.4355ZM254.95 35.5H252.393V36.5H254.95V35.5ZM266.735 35.6591L266.533 36.1165L266.534 36.117L266.735 35.6591ZM264.647 34.0483L264.245 34.3451L264.247 34.3488L264.647 34.0483ZM263.812 31.6364V31.1364H263.286L263.312 31.6612L263.812 31.6364ZM265.96 31.6364L266.458 31.5961L266.421 31.1364H265.96V31.6364ZM266.539 33.0938L266.155 33.4138L266.157 33.4165L266.539 33.0938ZM267.877 34.0312L267.691 34.4952L267.691 34.4952L267.877 34.0312ZM273.067 32.8807L272.659 32.5919L272.659 32.5919L273.067 32.8807ZM273.085 29.5653L272.664 29.836L272.666 29.8382L273.085 29.5653ZM271.687 28.4062L271.48 28.8616L271.48 28.8616L271.687 28.4062ZM268.039 27.9886H267.539V28.4886H268.039V27.9886ZM268.039 26.1136V25.6136H267.539V26.1136H268.039ZM271.261 25.7386L271.047 25.2867L271.045 25.2876L271.261 25.7386ZM272.496 24.6818L272.08 24.4057L272.077 24.4093L272.496 24.6818ZM272.556 21.5369L272.985 21.2805L272.985 21.2805L272.556 21.5369ZM271.448 20.5142L271.218 20.9582L271.22 20.9593L271.448 20.5142ZM268.073 20.4801L268.262 20.943L268.265 20.9419L268.073 20.4801ZM266.778 21.4261L267.164 21.7431L267.167 21.7404L266.778 21.4261ZM266.232 22.9091V23.4091H266.708L266.732 22.9336L266.232 22.9091ZM264.187 22.9091L263.687 22.8905L263.668 23.4091H264.187V22.9091ZM265.013 20.5057L265.413 20.8062L265.414 20.8046L265.013 20.5057ZM267.042 18.8864L266.833 18.432L266.832 18.4326L267.042 18.8864ZM272.59 18.9631L272.344 19.3982L272.346 19.3995L272.59 18.9631ZM274.371 20.6761L273.94 20.9283L273.94 20.9283L274.371 20.6761ZM274.218 25.4915L273.817 25.1925L273.816 25.1947L274.218 25.4915ZM272.13 26.9318L271.985 26.4533L271.63 26.561V26.9318H272.13ZM272.13 27.0682H271.63V27.4925L272.049 27.5615L272.13 27.0682ZM274.712 28.4744L274.326 28.7914L274.327 28.7928L274.712 28.4744ZM274.866 33.8182L274.453 33.5358L274.453 33.5365L274.866 33.8182ZM272.769 35.5909L272.988 36.0404L272.988 36.0404L272.769 35.5909ZM269.744 35.7386C268.676 35.7386 267.743 35.5555 266.936 35.2012L266.534 36.117C267.488 36.5354 268.561 36.7386 269.744 36.7386V35.7386ZM266.937 35.2017C266.131 34.8459 265.507 34.3595 265.047 33.7478L264.247 34.3488C264.821 35.1121 265.589 35.6995 266.533 36.1165L266.937 35.2017ZM265.049 33.7515C264.6 33.1425 264.352 32.4346 264.311 31.6115L263.312 31.6612C263.362 32.6677 263.671 33.5677 264.245 34.3451L265.049 33.7515ZM263.812 32.1364H265.96V31.1364H263.812V32.1364ZM265.461 31.6766C265.514 32.3355 265.744 32.9206 266.155 33.4138L266.923 32.7737C266.652 32.4487 266.496 32.0623 266.458 31.5961L265.461 31.6766ZM266.157 33.4165C266.557 33.8896 267.073 34.247 267.691 34.4952L268.064 33.5673C267.579 33.3723 267.203 33.1047 266.921 32.771L266.157 33.4165ZM267.691 34.4952C268.308 34.7435 268.983 34.8636 269.71 34.8636V33.8636C269.095 33.8636 268.548 33.7622 268.064 33.5673L267.691 34.4952ZM269.71 34.8636C270.518 34.8636 271.255 34.7227 271.909 34.4274L271.498 33.5158C270.994 33.7433 270.401 33.8636 269.71 33.8636V34.8636ZM271.909 34.4274C272.561 34.1337 273.089 33.7161 273.476 33.1694L272.659 32.5919C272.387 32.977 272.006 33.2868 271.498 33.5158L271.909 34.4274ZM273.476 33.1694C273.87 32.6126 274.062 31.9702 274.062 31.2614H273.062C273.062 31.7798 272.925 32.2169 272.659 32.5919L273.476 33.1694ZM274.062 31.2614C274.062 30.5326 273.88 29.8704 273.504 29.2925L272.666 29.8382C272.926 30.2375 273.062 30.706 273.062 31.2614H274.062ZM273.505 29.2947C273.127 28.7082 272.581 28.2631 271.893 27.9509L271.48 28.8616C272.019 29.1062 272.405 29.4338 272.664 29.836L273.505 29.2947ZM271.893 27.9509C271.198 27.6353 270.373 27.4886 269.437 27.4886V28.4886C270.273 28.4886 270.949 28.6203 271.48 28.8616L271.893 27.9509ZM269.437 27.4886H268.039V28.4886H269.437V27.4886ZM268.539 27.9886V26.1136H267.539V27.9886H268.539ZM268.039 26.6136H269.437V25.6136H268.039V26.6136ZM269.437 26.6136C270.19 26.6136 270.874 26.4776 271.476 26.1897L271.045 25.2876C270.601 25.4996 270.07 25.6136 269.437 25.6136V26.6136ZM271.474 26.1906C272.08 25.9042 272.566 25.4926 272.916 24.9543L272.077 24.4093C271.836 24.7801 271.498 25.0731 271.047 25.2867L271.474 26.1906ZM272.913 24.958C273.275 24.4115 273.448 23.7787 273.448 23.0795H272.448C272.448 23.6077 272.32 24.043 272.08 24.4057L272.913 24.958ZM273.448 23.0795C273.448 22.413 273.3 21.8072 272.985 21.2805L272.127 21.7934C272.335 22.1417 272.448 22.5643 272.448 23.0795H273.448ZM272.985 21.2805C272.673 20.7582 272.232 20.3539 271.676 20.0691L271.22 20.9593C271.619 21.1632 271.916 21.4407 272.127 21.7934L272.985 21.2805ZM271.678 20.0702C271.122 19.7822 270.483 19.6477 269.778 19.6477V20.6477C270.356 20.6477 270.831 20.7576 271.218 20.9582L271.678 20.0702ZM269.778 19.6477C269.112 19.6477 268.479 19.7704 267.882 20.0183L268.265 20.9419C268.736 20.7466 269.238 20.6477 269.778 20.6477V19.6477ZM267.884 20.0173C267.283 20.2627 266.781 20.6269 266.389 21.1118L267.167 21.7404C267.445 21.3958 267.806 21.1293 268.262 20.943L267.884 20.0173ZM266.391 21.1092C265.981 21.6093 265.766 22.209 265.733 22.8846L266.732 22.9336C266.755 22.4501 266.904 22.0612 267.164 21.743L266.391 21.1092ZM266.232 22.4091H264.187V23.4091H266.232V22.4091ZM264.686 22.9277C264.717 22.108 264.961 21.4068 265.413 20.8062L264.614 20.2052C264.031 20.9796 263.725 21.8806 263.687 22.8905L264.686 22.9277ZM265.414 20.8046C265.878 20.1824 266.487 19.6939 267.252 19.3402L266.832 18.4326C265.926 18.8515 265.183 19.4426 264.613 20.2067L265.414 20.8046ZM267.251 19.3407C268.021 18.987 268.872 18.8068 269.812 18.8068V17.8068C268.74 17.8068 267.745 18.013 266.833 18.432L267.251 19.3407ZM269.812 18.8068C270.824 18.8068 271.661 19.0115 272.344 19.3982L272.837 18.528C271.974 18.0396 270.959 17.8068 269.812 17.8068V18.8068ZM272.346 19.3995C273.047 19.7912 273.573 20.301 273.94 20.9283L274.803 20.424C274.34 19.6308 273.679 18.9985 272.834 18.5266L272.346 19.3995ZM273.94 20.9283C274.31 21.5619 274.494 22.2419 274.494 22.9773H275.494C275.494 22.065 275.263 21.2109 274.803 20.424L273.94 20.9283ZM274.494 22.9773C274.494 23.8679 274.261 24.5973 273.817 25.1925L274.619 25.7904C275.209 24.9993 275.494 24.0526 275.494 22.9773H274.494ZM273.816 25.1947C273.373 25.7951 272.77 26.2153 271.985 26.4533L272.275 27.4103C273.251 27.1143 274.041 26.5743 274.62 25.7883L273.816 25.1947ZM271.63 26.9318V27.0682H272.63V26.9318H271.63ZM272.049 27.5615C273.049 27.7266 273.794 28.143 274.326 28.7914L275.099 28.1575C274.392 27.2945 273.415 26.7734 272.211 26.5748L272.049 27.5615ZM274.327 28.7928C274.862 29.4408 275.141 30.2525 275.141 31.2614H276.141C276.141 30.0543 275.801 29.008 275.098 28.1561L274.327 28.7928ZM275.141 31.2614C275.141 32.1133 274.911 32.8665 274.453 33.5358L275.278 34.1005C275.855 33.2585 276.141 32.3071 276.141 31.2614H275.141ZM274.453 33.5365C273.994 34.2085 273.365 34.7443 272.55 35.1414L272.988 36.0404C273.946 35.5739 274.714 34.9278 275.279 34.0999L274.453 33.5365ZM272.55 35.1414C271.741 35.5354 270.81 35.7386 269.744 35.7386V36.7386C270.939 36.7386 272.024 36.51 272.988 36.0404L272.55 35.1414Z" fill="black"/>
</svg>
