<svg width="484" height="55" viewBox="0 0 484 55" fill="none" xmlns="http://www.w3.org/2000/svg">
<rect width="484" height="55" rx="22" fill="#F5F5F5"/>
<path d="M53.7029 28.967L53.7028 28.966C53.669 28.6758 53.9363 28.268 54.5371 28.2193C55.1485 28.173 55.5343 28.5405 55.571 28.8508C55.6337 29.393 55.6653 29.9432 55.6653 30.5001C55.6653 39.7898 46.5221 47.5 35.0828 47.5C23.6435 47.5 14.5 39.7898 14.5 30.5001C14.5 21.2105 23.6435 13.5 35.0828 13.5C39.0473 13.5 42.8986 14.4379 46.2207 16.2078C46.4445 16.3276 46.5606 16.4943 46.6 16.6443C46.6383 16.7897 46.6148 16.9532 46.4938 17.1099C46.2288 17.4514 45.6157 17.5897 45.1367 17.3348C42.1281 15.7301 38.6506 14.8864 35.0828 14.8864C24.8585 14.8864 16.3749 21.8075 16.3749 30.5001C16.3749 39.1925 24.8585 46.1136 35.0828 46.1136C45.3068 46.1136 53.7904 39.1925 53.7904 30.5001C53.7904 29.9828 53.7605 29.4706 53.7029 28.967Z" fill="#41B06E" stroke="#41B06E"/>
<path d="M36.7832 33.7437L36.782 33.7427L28.1574 26.5837C28.1574 26.5837 28.1573 26.5837 28.1573 26.5836C27.9821 26.438 27.9168 26.2697 27.9168 26.1242C27.9168 25.9786 27.9821 25.8104 28.1573 25.665C28.5336 25.3526 29.1756 25.3526 29.5519 25.665L37.1611 31.981L37.4804 32.2461L37.7998 31.981L57.8644 15.3258C57.8644 15.3258 57.8644 15.3257 57.8645 15.3257C58.2413 15.0132 58.8832 15.0134 59.2595 15.3257C59.4347 15.4711 59.5 15.6394 59.5 15.7849C59.5 15.9304 59.4347 16.0986 59.2595 16.2441L38.1781 33.743C38.1779 33.7432 38.1776 33.7434 38.1774 33.7436C37.9963 33.8925 37.7454 33.9773 37.4783 33.9773C37.2108 33.9773 36.9608 33.8921 36.7832 33.7437Z" fill="#41B06E" stroke="#41B06E"/>
<path d="M211.114 36V18.5455H213.227V34.125H221.341V36H211.114ZM224.341 36V22.9091H226.352V36H224.341ZM225.364 20.7273C224.972 20.7273 224.634 20.5938 224.349 20.3267C224.071 20.0597 223.932 19.7386 223.932 19.3636C223.932 18.9886 224.071 18.6676 224.349 18.4006C224.634 18.1335 224.972 18 225.364 18C225.756 18 226.091 18.1335 226.369 18.4006C226.653 18.6676 226.795 18.9886 226.795 19.3636C226.795 19.7386 226.653 20.0597 226.369 20.3267C226.091 20.5938 225.756 20.7273 225.364 20.7273ZM232.048 28.125V36H230.036V22.9091H231.979V24.9545H232.15C232.457 24.2898 232.923 23.7557 233.548 23.3523C234.173 22.9432 234.979 22.7386 235.968 22.7386C236.854 22.7386 237.63 22.9205 238.295 23.2841C238.96 23.642 239.477 24.1875 239.846 24.9205C240.215 25.6477 240.4 26.5682 240.4 27.6818V36H238.388V27.8182C238.388 26.7898 238.121 25.9886 237.587 25.4148C237.053 24.8352 236.32 24.5455 235.388 24.5455C234.746 24.5455 234.173 24.6847 233.667 24.9631C233.167 25.2415 232.772 25.6477 232.482 26.1818C232.192 26.7159 232.048 27.3636 232.048 28.125ZM245.95 31.2273L245.916 28.7386H246.325L252.053 22.9091H254.541L248.439 29.0795H248.268L245.95 31.2273ZM244.075 36V18.5455H246.087V36H244.075ZM252.393 36L247.28 29.5227L248.712 28.125L254.95 36H252.393ZM263.846 36V34.4659L269.607 28.1591C270.283 27.4205 270.84 26.7784 271.278 26.233C271.715 25.6818 272.039 25.1648 272.249 24.6818C272.465 24.1932 272.573 23.6818 272.573 23.1477C272.573 22.5341 272.425 22.0028 272.13 21.554C271.84 21.1051 271.442 20.7585 270.937 20.5142C270.431 20.2699 269.863 20.1477 269.232 20.1477C268.562 20.1477 267.977 20.2869 267.477 20.5653C266.982 20.8381 266.599 21.2216 266.326 21.7159C266.059 22.2102 265.925 22.7898 265.925 23.4545H263.914C263.914 22.4318 264.15 21.5341 264.621 20.7614C265.093 19.9886 265.735 19.3864 266.548 18.9545C267.366 18.5227 268.283 18.3068 269.3 18.3068C270.323 18.3068 271.229 18.5227 272.019 18.9545C272.809 19.3864 273.428 19.9687 273.877 20.7017C274.326 21.4347 274.55 22.25 274.55 23.1477C274.55 23.7898 274.434 24.4176 274.201 25.0312C273.974 25.6392 273.576 26.3182 273.008 27.0682C272.445 27.8125 271.664 28.7216 270.664 29.7955L266.744 33.9886V34.125H274.857V36H263.846Z" fill="black"/>
<path d="M211.114 36H210.614V36.5H211.114V36ZM211.114 18.5455V18.0455H210.614V18.5455H211.114ZM213.227 18.5455H213.727V18.0455H213.227V18.5455ZM213.227 34.125H212.727V34.625H213.227V34.125ZM221.341 34.125H221.841V33.625H221.341V34.125ZM221.341 36V36.5H221.841V36H221.341ZM211.614 36V18.5455H210.614V36H211.614ZM211.114 19.0455H213.227V18.0455H211.114V19.0455ZM212.727 18.5455V34.125H213.727V18.5455H212.727ZM213.227 34.625H221.341V33.625H213.227V34.625ZM220.841 34.125V36H221.841V34.125H220.841ZM221.341 35.5H211.114V36.5H221.341V35.5ZM224.341 36H223.841V36.5H224.341V36ZM224.341 22.9091V22.4091H223.841V22.9091H224.341ZM226.352 22.9091H226.852V22.4091H226.352V22.9091ZM226.352 36V36.5H226.852V36H226.352ZM224.349 20.3267L224.003 20.6876L224.007 20.691L224.349 20.3267ZM224.349 18.4006L224.007 18.0362L224.003 18.0397L224.349 18.4006ZM226.369 18.4006L226.023 18.7614L226.027 18.7649L226.369 18.4006ZM226.369 20.3267L226.027 19.9624L226.023 19.9659L226.369 20.3267ZM224.841 36V22.9091H223.841V36H224.841ZM224.341 23.4091H226.352V22.4091H224.341V23.4091ZM225.852 22.9091V36H226.852V22.9091H225.852ZM226.352 35.5H224.341V36.5H226.352V35.5ZM225.364 20.2273C225.098 20.2273 224.883 20.1417 224.692 19.9624L224.007 20.691C224.384 21.0458 224.845 21.2273 225.364 21.2273V20.2273ZM224.696 19.9659C224.512 19.7901 224.432 19.5981 224.432 19.3636H223.432C223.432 19.8792 223.63 20.3293 224.003 20.6875L224.696 19.9659ZM224.432 19.3636C224.432 19.1292 224.512 18.9372 224.696 18.7614L224.003 18.0397C223.63 18.398 223.432 18.8481 223.432 19.3636H224.432ZM224.692 18.7649C224.883 18.5855 225.098 18.5 225.364 18.5V17.5C224.845 17.5 224.384 17.6815 224.007 18.0363L224.692 18.7649ZM225.364 18.5C225.629 18.5 225.84 18.5853 226.023 18.7614L226.715 18.0397C226.342 17.6818 225.882 17.5 225.364 17.5V18.5ZM226.027 18.7649C226.215 18.9417 226.295 19.1327 226.295 19.3636H227.295C227.295 18.8446 227.092 18.3936 226.712 18.0363L226.027 18.7649ZM226.295 19.3636C226.295 19.5946 226.215 19.7856 226.027 19.9624L226.712 20.691C227.092 20.3337 227.295 19.8827 227.295 19.3636H226.295ZM226.023 19.9659C225.84 20.142 225.629 20.2273 225.364 20.2273V21.2273C225.882 21.2273 226.342 21.0455 226.715 20.6875L226.023 19.9659ZM232.048 36V36.5H232.548V36H232.048ZM230.036 36H229.536V36.5H230.036V36ZM230.036 22.9091V22.4091H229.536V22.9091H230.036ZM231.979 22.9091H232.479V22.4091H231.979V22.9091ZM231.979 24.9545H231.479V25.4545H231.979V24.9545ZM232.15 24.9545V25.4545H232.47L232.604 25.1641L232.15 24.9545ZM233.548 23.3523L233.819 23.7724L233.821 23.7706L233.548 23.3523ZM238.295 23.2841L238.055 23.7228L238.058 23.7243L238.295 23.2841ZM239.846 24.9205L239.399 25.1454L239.4 25.1468L239.846 24.9205ZM240.4 36V36.5H240.9V36H240.4ZM238.388 36H237.888V36.5H238.388V36ZM237.587 25.4148L237.22 25.7536L237.221 25.7554L237.587 25.4148ZM233.667 24.9631L233.426 24.5251L233.424 24.5262L233.667 24.9631ZM232.482 26.1818L232.043 25.9434L232.043 25.9434L232.482 26.1818ZM231.548 28.125V36H232.548V28.125H231.548ZM232.048 35.5H230.036V36.5H232.048V35.5ZM230.536 36V22.9091H229.536V36H230.536ZM230.036 23.4091H231.979V22.4091H230.036V23.4091ZM231.479 22.9091V24.9545H232.479V22.9091H231.479ZM231.979 25.4545H232.15V24.4545H231.979V25.4545ZM232.604 25.1641C232.87 24.5869 233.272 24.1252 233.819 23.7724L233.276 22.9322C232.573 23.3861 232.043 23.9927 231.696 24.745L232.604 25.1641ZM233.821 23.7706C234.343 23.4295 235.046 23.2386 235.968 23.2386V22.2386C234.913 22.2386 234.003 22.4569 233.274 22.9339L233.821 23.7706ZM235.968 23.2386C236.785 23.2386 237.475 23.4057 238.055 23.7228L238.535 22.8454C237.785 22.4352 236.924 22.2386 235.968 22.2386V23.2386ZM238.058 23.7243C238.624 24.0294 239.072 24.4956 239.399 25.1454L240.292 24.6955C239.881 23.8794 239.295 23.2547 238.532 22.8439L238.058 23.7243ZM239.4 25.1468C239.723 25.7831 239.9 26.6196 239.9 27.6818H240.9C240.9 26.5168 240.707 25.5123 240.292 24.6941L239.4 25.1468ZM239.9 27.6818V36H240.9V27.6818H239.9ZM240.4 35.5H238.388V36.5H240.4V35.5ZM238.888 36V27.8182H237.888V36H238.888ZM238.888 27.8182C238.888 26.7039 238.598 25.7664 237.953 25.0741L237.221 25.7554C237.645 26.2108 237.888 26.8757 237.888 27.8182H238.888ZM237.955 25.0759C237.309 24.3749 236.432 24.0455 235.388 24.0455V25.0455C236.208 25.0455 236.798 25.2956 237.22 25.7536L237.955 25.0759ZM235.388 24.0455C234.672 24.0455 234.013 24.2016 233.426 24.5251L233.908 25.4011C234.332 25.1677 234.821 25.0455 235.388 25.0455V24.0455ZM233.424 24.5262C232.836 24.8537 232.375 25.3313 232.043 25.9434L232.922 26.4203C233.169 25.9642 233.498 25.6293 233.91 25.3999L233.424 24.5262ZM232.043 25.9434C231.704 26.5669 231.548 27.301 231.548 28.125H232.548C232.548 27.4262 232.68 26.8649 232.922 26.4203L232.043 25.9434ZM245.95 31.2273L245.45 31.2341L245.466 32.3578L246.29 31.5941L245.95 31.2273ZM245.916 28.7386V28.2386H245.409L245.416 28.7455L245.916 28.7386ZM246.325 28.7386V29.2386H246.535L246.682 29.089L246.325 28.7386ZM252.053 22.9091V22.4091H251.843L251.696 22.5587L252.053 22.9091ZM254.541 22.9091L254.897 23.2607L255.739 22.4091H254.541V22.9091ZM248.439 29.0795V29.5795H248.648L248.794 29.4311L248.439 29.0795ZM248.268 29.0795V28.5795H248.072L247.929 28.7128L248.268 29.0795ZM244.075 36H243.575V36.5H244.075V36ZM244.075 18.5455V18.0455H243.575V18.5455H244.075ZM246.087 18.5455H246.587V18.0455H246.087V18.5455ZM246.087 36V36.5H246.587V36H246.087ZM252.393 36L252.001 36.3098L252.151 36.5H252.393V36ZM247.28 29.5227L246.931 29.1649L246.609 29.4793L246.887 29.8325L247.28 29.5227ZM248.712 28.125L249.104 27.8145L248.759 27.3798L248.362 27.7672L248.712 28.125ZM254.95 36V36.5H255.984L255.342 35.6895L254.95 36ZM246.45 31.2204L246.416 28.7318L245.416 28.7455L245.45 31.2341L246.45 31.2204ZM245.916 29.2386H246.325V28.2386H245.916V29.2386ZM246.682 29.089L252.409 23.2595L251.696 22.5587L245.969 28.3882L246.682 29.089ZM252.053 23.4091H254.541V22.4091H252.053V23.4091ZM254.186 22.5575L248.083 28.728L248.794 29.4311L254.897 23.2607L254.186 22.5575ZM248.439 28.5795H248.268V29.5795H248.439V28.5795ZM247.929 28.7128L245.61 30.8605L246.29 31.5941L248.608 29.4463L247.929 28.7128ZM244.575 36V18.5455H243.575V36H244.575ZM244.075 19.0455H246.087V18.0455H244.075V19.0455ZM245.587 18.5455V36H246.587V18.5455H245.587ZM246.087 35.5H244.075V36.5H246.087V35.5ZM252.786 35.6902L247.672 29.2129L246.887 29.8325L252.001 36.3098L252.786 35.6902ZM247.629 29.8805L249.061 28.4828L248.362 27.7672L246.931 29.1649L247.629 29.8805ZM248.32 28.4355L254.558 36.3105L255.342 35.6895L249.104 27.8145L248.32 28.4355ZM254.95 35.5H252.393V36.5H254.95V35.5ZM263.846 36H263.346V36.5H263.846V36ZM263.846 34.4659L263.477 34.1287L263.346 34.2719V34.4659H263.846ZM269.607 28.1591L269.238 27.8215L269.238 27.8219L269.607 28.1591ZM271.278 26.233L271.668 26.5458L271.669 26.5438L271.278 26.233ZM272.249 24.6818L271.792 24.4797L271.791 24.4823L272.249 24.6818ZM272.13 21.554L271.71 21.8252L271.712 21.8289L272.13 21.554ZM270.937 20.5142L271.154 20.064L271.154 20.064L270.937 20.5142ZM267.477 20.5653L267.718 21.0031L267.72 21.0022L267.477 20.5653ZM266.326 21.7159L265.888 21.4744L265.886 21.4783L266.326 21.7159ZM265.925 23.4545V23.9545H266.425V23.4545H265.925ZM263.914 23.4545H263.414V23.9545H263.914V23.4545ZM264.621 20.7614L265.048 21.0218L265.048 21.0218L264.621 20.7614ZM266.548 18.9545L266.314 18.5124L266.313 18.513L266.548 18.9545ZM272.019 18.9545L272.259 18.5158L272.259 18.5158L272.019 18.9545ZM274.201 25.0312L273.734 24.8538L273.733 24.8562L274.201 25.0312ZM273.008 27.0682L272.609 26.7663L272.609 26.7667L273.008 27.0682ZM270.664 29.7955L271.029 30.1369L271.03 30.1362L270.664 29.7955ZM266.744 33.9886L266.378 33.6472L266.244 33.7913V33.9886H266.744ZM266.744 34.125H266.244V34.625H266.744V34.125ZM274.857 34.125H275.357V33.625H274.857V34.125ZM274.857 36V36.5H275.357V36H274.857ZM264.346 36V34.4659H263.346V36H264.346ZM264.215 34.8031L269.976 28.4963L269.238 27.8219L263.477 34.1287L264.215 34.8031ZM269.976 28.4967C270.657 27.7531 271.221 27.1025 271.668 26.5458L270.888 25.9201C270.459 26.4543 269.91 27.0878 269.238 27.8215L269.976 28.4967ZM271.669 26.5438C272.125 25.9693 272.475 25.415 272.708 24.8814L271.791 24.4823C271.603 24.9146 271.305 25.3944 270.886 25.9221L271.669 26.5438ZM272.707 24.8839C272.951 24.3316 273.073 23.7514 273.073 23.1477H272.073C272.073 23.6122 271.98 24.0547 271.792 24.4797L272.707 24.8839ZM273.073 23.1477C273.073 22.4506 272.904 21.8207 272.548 21.2791L271.712 21.8289C271.947 22.185 272.073 22.6175 272.073 23.1477H273.073ZM272.55 21.2828C272.208 20.7528 271.738 20.3461 271.154 20.064L270.719 20.9644C271.147 21.1709 271.473 21.4575 271.71 21.8252L272.55 21.2828ZM271.154 20.064C270.573 19.7831 269.929 19.6477 269.232 19.6477V20.6477C269.797 20.6477 270.289 20.7567 270.719 20.9644L271.154 20.064ZM269.232 19.6477C268.491 19.6477 267.82 19.8021 267.233 20.1285L267.72 21.0022C268.134 20.7718 268.632 20.6477 269.232 20.6477V19.6477ZM267.235 20.1276C266.658 20.4459 266.207 20.8974 265.888 21.4744L266.764 21.9574C266.991 21.5458 267.306 21.2303 267.718 21.0031L267.235 20.1276ZM265.886 21.4783C265.573 22.0579 265.425 22.722 265.425 23.4545H266.425C266.425 22.8575 266.545 22.3626 266.766 21.9536L265.886 21.4783ZM265.925 22.9545H263.914V23.9545H265.925V22.9545ZM264.414 23.4545C264.414 22.5115 264.631 21.7063 265.048 21.0218L264.195 20.5009C263.669 21.3619 263.414 22.3521 263.414 23.4545H264.414ZM265.048 21.0218C265.472 20.3269 266.047 19.7866 266.782 19.3961L266.313 18.513C265.423 18.9862 264.714 19.6504 264.195 20.5009L265.048 21.0218ZM266.781 19.3967C267.52 19.0066 268.356 18.8068 269.3 18.8068V17.8068C268.21 17.8068 267.211 18.0389 266.314 18.5124L266.781 19.3967ZM269.3 18.8068C270.251 18.8068 271.073 19.0069 271.779 19.3933L272.259 18.5158C271.386 18.0386 270.395 17.8068 269.3 17.8068V18.8068ZM271.779 19.3933C272.496 19.7852 273.05 20.3079 273.451 20.9628L274.304 20.4406C273.807 19.6296 273.122 18.9875 272.259 18.5158L271.779 19.3933ZM273.451 20.9628C273.849 21.6136 274.05 22.3379 274.05 23.1477H275.05C275.05 22.1621 274.803 21.2557 274.304 20.4406L273.451 20.9628ZM274.05 23.1477C274.05 23.7278 273.945 24.2956 273.734 24.8538L274.668 25.2087C274.922 24.5397 275.05 23.8518 275.05 23.1477H274.05ZM273.733 24.8562C273.528 25.4033 273.16 26.0392 272.609 26.7663L273.406 27.3701C273.992 26.5972 274.419 25.8751 274.669 25.2063L273.733 24.8562ZM272.609 26.7667C272.061 27.492 271.292 28.3872 270.298 29.4547L271.03 30.1362C272.036 29.056 272.83 28.133 273.407 27.3696L272.609 26.7667ZM270.299 29.454L266.378 33.6472L267.109 34.3301L271.029 30.1369L270.299 29.454ZM266.244 33.9886V34.125H267.244V33.9886H266.244ZM266.744 34.625H274.857V33.625H266.744V34.625ZM274.357 34.125V36H275.357V34.125H274.357ZM274.857 35.5H263.846V36.5H274.857V35.5Z" fill="black"/>
</svg>
